<svg width="28" height="28" viewBox="0 0 28 28" fill="none" xmlns="http://www.w3.org/2000/svg">
<path d="M23.7418 10.4101L23.3148 10.1721L23.1829 10.0975C22.8649 9.90659 22.5969 9.64263 22.4013 9.32748C22.3803 9.29598 22.3616 9.26214 22.3243 9.19681C22.0727 8.79306 21.9506 8.32208 21.9743 7.84698L21.9813 7.35114C21.9953 6.55781 22.0023 6.15881 21.8903 5.80181C21.7912 5.48417 21.6253 5.1914 21.4038 4.94314C21.1541 4.66314 20.8076 4.46248 20.1134 4.06348L19.5371 3.73098C18.8464 3.33314 18.4999 3.13364 18.1324 3.05781C17.8077 2.99062 17.4725 2.99341 17.1489 3.06598C16.7838 3.14764 16.4419 3.35298 15.7594 3.76131L15.7559 3.76364L15.3429 4.00981C15.2776 4.04948 15.2438 4.06814 15.2111 4.08681C14.8868 4.26764 14.5251 4.36681 14.1529 4.37848C14.1156 4.38081 14.0771 4.38081 14.0013 4.38081L13.8496 4.37964C13.4773 4.36778 13.1133 4.26698 12.7879 4.08564C12.7553 4.06814 12.7238 4.04831 12.6584 4.00864L12.2419 3.75898C11.5548 3.34598 11.2106 3.14064 10.8431 3.05781C10.5184 2.98512 10.1818 2.98273 9.85609 3.05081C9.48743 3.12781 9.14209 3.32848 8.45026 3.72981L8.44676 3.73098L7.87743 4.06114L7.87159 4.06581C7.18559 4.46248 6.84143 4.66314 6.59409 4.94198C6.37368 5.18977 6.20863 5.4817 6.10993 5.79831C5.99909 6.15648 6.00493 6.55548 6.01893 7.35348L6.02709 7.84814C6.02709 7.92398 6.03059 7.96131 6.02943 7.99748C6.02338 8.42135 5.90198 8.83557 5.67826 9.19564C5.63976 9.26098 5.62226 9.29364 5.60243 9.32398C5.40572 9.64151 5.13565 9.90718 4.81493 10.0986L4.68426 10.1721L4.26309 10.4055C3.56076 10.794 3.20959 10.9888 2.95526 11.2665C2.72914 11.5113 2.55808 11.8017 2.45359 12.1181C2.33693 12.4763 2.33693 12.8765 2.33809 13.6791L2.34043 14.336C2.34159 15.1328 2.34393 15.5306 2.46176 15.8865C2.56581 16.201 2.73563 16.4897 2.95993 16.7335C3.21426 17.0088 3.56193 17.2025 4.25843 17.5898L4.67609 17.822C4.74726 17.8616 4.78343 17.8803 4.81726 17.9013C5.18286 18.1205 5.48144 18.4356 5.68059 18.8125L5.75876 18.9525C5.95582 19.3245 6.04854 19.743 6.02709 20.1635L6.01893 20.6383C6.00493 21.4386 5.99909 21.84 6.11109 22.1981C6.21026 22.5155 6.37593 22.8083 6.59759 23.0568C6.84726 23.3368 7.19493 23.5363 7.88793 23.9365L8.46426 24.269C9.15609 24.6668 9.50143 24.8663 9.86893 24.9421C10.1936 25.0093 10.5289 25.0065 10.8524 24.934C11.2188 24.8523 11.5606 24.647 12.2454 24.2363L12.6584 23.989L12.7903 23.912C13.1146 23.7323 13.4763 23.632 13.8484 23.6203L14.0001 23.6191H14.1518C14.5228 23.6308 14.8868 23.7323 15.2134 23.9131L15.3208 23.9773L15.7594 24.241C16.4478 24.654 16.7908 24.8593 17.1583 24.941C17.4828 25.0144 17.8194 25.0176 18.1453 24.9503C18.5128 24.8733 18.8604 24.6715 19.5523 24.2701L20.1298 23.9353C20.8158 23.5363 21.1599 23.3368 21.4073 23.058C21.6289 22.8095 21.7923 22.5178 21.8914 22.2016C22.0023 21.8458 21.9964 21.4503 21.9824 20.664L21.9731 20.1506V20.0025C21.9786 19.5783 22.0996 19.1637 22.3231 18.8031L22.3989 18.6748C22.5956 18.3573 22.8657 18.0916 23.1864 17.9001L23.3148 17.829L23.3171 17.8278L23.7383 17.5945C24.4406 17.2048 24.7918 17.0111 25.0473 16.7335C25.2736 16.4885 25.4439 16.1968 25.5478 15.8818C25.6644 15.526 25.6644 15.127 25.6621 14.3336L25.6598 13.664C25.6586 12.8671 25.6574 12.4681 25.5396 12.1123C25.435 11.7981 25.2648 11.5098 25.0403 11.2665C24.7871 10.9911 24.4394 10.7975 23.7441 10.4113L23.7418 10.4101Z" stroke="#111827" stroke-width="2" stroke-linecap="round" stroke-linejoin="round"/>
<path d="M9.3335 14.0002C9.3335 15.2378 9.82516 16.4248 10.7003 17.3C11.5755 18.1752 12.7625 18.6668 14.0002 18.6668C15.2378 18.6668 16.4248 18.1752 17.3 17.3C18.1752 16.4248 18.6668 15.2378 18.6668 14.0002C18.6668 12.7625 18.1752 11.5755 17.3 10.7003C16.4248 9.82516 15.2378 9.3335 14.0002 9.3335C12.7625 9.3335 11.5755 9.82516 10.7003 10.7003C9.82516 11.5755 9.3335 12.7625 9.3335 14.0002Z" stroke="#111827" stroke-width="2" stroke-linecap="round" stroke-linejoin="round"/>
</svg>
