<svg width="29" height="29" viewBox="0 0 29 29" fill="none" xmlns="http://www.w3.org/2000/svg">
<path d="M19.3176 5.85374V3.51221M8.78066 5.85374V3.51221M3.8049 9.36604H24.2933M3.51221 11.7591C3.51221 9.28292 3.51221 8.04424 4.02266 7.09827C4.48423 6.2545 5.20045 5.57803 6.06916 5.16533C7.07134 4.68297 8.3826 4.68297 11.0051 4.68297H17.0931C19.7156 4.68297 21.0269 4.68297 22.0291 5.16533C22.9106 5.58915 23.626 6.26585 24.0756 7.09709C24.586 8.04542 24.586 9.28409 24.586 11.7603V17.5111C24.586 19.9872 24.586 21.2259 24.0756 22.1719C23.614 23.0156 22.8978 23.6921 22.0291 24.1048C21.0269 24.586 19.7156 24.586 17.0931 24.586H11.0051C8.3826 24.586 7.07134 24.586 6.06916 24.1036C5.20062 23.6913 4.48443 23.0152 4.02266 22.1719C3.51221 21.2236 3.51221 19.9849 3.51221 17.5087V11.7591Z" stroke="#111827" stroke-width="1.5" stroke-linecap="round" stroke-linejoin="round"/>
</svg>
