<svg width="30" height="30" viewBox="0 0 30 30" fill="none" xmlns="http://www.w3.org/2000/svg">
<path d="M21.2883 19.9615C21.3755 20.0485 21.4446 20.1519 21.4918 20.2658C21.539 20.3796 21.5633 20.5016 21.5633 20.6248C21.5633 20.748 21.539 20.87 21.4918 20.9838C21.4446 21.0976 21.3755 21.201 21.2883 21.288L15.6633 26.913C15.5762 27.0002 15.4729 27.0694 15.359 27.1165C15.2452 27.1637 15.1232 27.188 15 27.188C14.8768 27.188 14.7548 27.1637 14.641 27.1165C14.5272 27.0694 14.4238 27.0002 14.3368 26.913L8.71175 21.288C8.53584 21.1121 8.43701 20.8735 8.43701 20.6248C8.43701 20.376 8.53584 20.1374 8.71175 19.9615C8.88766 19.7856 9.12625 19.6867 9.37503 19.6867C9.62381 19.6867 9.8624 19.7856 10.0383 19.9615L15 24.9244L19.9618 19.9615C20.0488 19.8743 20.1522 19.8052 20.266 19.758C20.3798 19.7108 20.5018 19.6865 20.625 19.6865C20.7482 19.6865 20.8702 19.7108 20.984 19.758C21.0978 19.8052 21.2012 19.8743 21.2883 19.9615ZM10.0383 10.038L15 5.07515L19.9618 10.038C20.1377 10.214 20.3763 10.3128 20.625 10.3128C20.8738 10.3128 21.1124 10.214 21.2883 10.038C21.4642 9.86213 21.5631 9.62354 21.5631 9.37476C21.5631 9.12598 21.4642 8.88739 21.2883 8.71148L15.6633 3.08648C15.5762 2.99931 15.4729 2.93016 15.359 2.88299C15.2452 2.83581 15.1232 2.81152 15 2.81152C14.8768 2.81152 14.7548 2.83581 14.641 2.88299C14.5272 2.93016 14.4238 2.99931 14.3368 3.08648L8.71175 8.71148C8.53584 8.88739 8.43701 9.12598 8.43701 9.37476C8.43701 9.62354 8.53584 9.86213 8.71175 10.038C8.88767 10.214 9.12625 10.3128 9.37503 10.3128C9.62381 10.3128 9.8624 10.214 10.0383 10.038Z" fill="#6B7280"/>
</svg>
