<svg width="30" height="30" viewBox="0 0 30 30" fill="none" xmlns="http://www.w3.org/2000/svg">
<path d="M14.9998 7.29376L14.7064 7.38282L2.98762 11.3091L0.323242 12.1875L1.8748 12.6844V20.8875C1.31512 21.2128 0.937305 21.8063 0.937305 22.5C0.937305 22.9973 1.13485 23.4742 1.48648 23.8258C1.83811 24.1775 2.31502 24.375 2.8123 24.375C3.30959 24.375 3.7865 24.1775 4.13813 23.8258C4.48976 23.4742 4.6873 22.9973 4.6873 22.5C4.6873 21.8063 4.30949 21.2128 3.7498 20.8875V13.3313L5.6248 13.9453V18.75C5.6248 19.5188 6.09355 20.1563 6.65043 20.5969C7.2073 21.0347 7.89918 21.3441 8.7298 21.6216C10.3929 22.1747 12.5848 22.5 14.9998 22.5C17.4148 22.5 19.6067 22.1756 21.2698 21.6206C22.1004 21.3441 22.7923 21.0347 23.3492 20.5959C23.9061 20.1563 24.3748 19.5188 24.3748 18.75V13.9453L27.012 13.0659L29.6764 12.1875L27.0111 11.3081L15.2923 7.38282L14.9998 7.29376ZM14.9998 9.25782L23.7889 12.1875L14.9998 15.1172L6.21074 12.1875L14.9998 9.25782ZM7.4998 14.5903L14.7073 16.9922L14.9998 17.0803L15.2932 16.9913L22.4998 14.5894V18.75C22.4998 18.7594 22.5036 18.8681 22.2064 19.1016C21.9101 19.3359 21.3786 19.6313 20.6829 19.8638C19.2936 20.3259 17.2451 20.625 14.9998 20.625C12.7545 20.625 10.7061 20.3269 9.31574 19.8628C8.62199 19.6313 8.08949 19.335 7.79324 19.1016C7.49512 18.8672 7.4998 18.7594 7.4998 18.75V14.5903Z" fill="black"/>
</svg>
