<svg width="33" height="33" viewBox="0 0 33 33" fill="none" xmlns="http://www.w3.org/2000/svg">
<path d="M30.9375 20.6248C30.9396 19.5922 30.6832 18.5754 30.1917 17.6673C29.7002 16.7591 28.9892 15.9884 28.1235 15.4254C27.2579 14.8623 26.2651 14.5249 25.2356 14.4439C24.2061 14.3628 23.1728 14.5407 22.2297 14.9614C21.2866 15.382 20.4638 16.032 19.8362 16.852C19.2086 17.6721 18.7963 18.6362 18.6368 19.6564C18.4773 20.6767 18.5756 21.7206 18.9229 22.6931C19.2702 23.6656 19.8553 24.5358 20.625 25.2242V32.9998L24.75 31.0466L28.875 32.9998V25.2242C29.5233 24.646 30.0422 23.9375 30.3976 23.1448C30.7531 22.3522 30.937 21.4935 30.9375 20.6248ZM26.8125 29.7411L24.75 28.7645L22.6875 29.7411V26.4514C24.0205 26.9317 25.4794 26.9317 26.8125 26.4514V29.7411ZM24.75 24.7498C23.9341 24.7498 23.1366 24.5079 22.4583 24.0546C21.7799 23.6014 21.2512 22.9571 20.939 22.2034C20.6268 21.4496 20.5451 20.6202 20.7042 19.8201C20.8634 19.0199 21.2563 18.2849 21.8332 17.708C22.4101 17.1311 23.1451 16.7382 23.9452 16.5791C24.7454 16.4199 25.5748 16.5016 26.3286 16.8138C27.0823 17.126 27.7265 17.6547 28.1798 18.3331C28.6331 19.0114 28.875 19.809 28.875 20.6248C28.8736 21.7184 28.4386 22.7668 27.6653 23.5401C26.892 24.3134 25.8436 24.7484 24.75 24.7498Z" fill="black"/>
<path d="M25.7812 5.15625H22.6875V4.125C22.6859 3.57849 22.468 3.05484 22.0816 2.6684C21.6952 2.28195 21.1715 2.06413 20.625 2.0625H12.375C11.8285 2.06413 11.3048 2.28195 10.9184 2.6684C10.532 3.05484 10.3141 3.57849 10.3125 4.125V5.15625H7.21875C6.67224 5.15788 6.14859 5.3757 5.76215 5.76215C5.3757 6.14859 5.15788 6.67224 5.15625 7.21875V28.875C5.15788 29.4215 5.3757 29.9452 5.76215 30.3316C6.14859 30.718 6.67224 30.9359 7.21875 30.9375H16.5V28.875H7.21875V7.21875H10.3125V10.3125H22.6875V7.21875H25.7812V12.375H27.8438V7.21875C27.8421 6.67224 27.6243 6.14859 27.2379 5.76215C26.8514 5.3757 26.3278 5.15788 25.7812 5.15625ZM20.625 8.25H12.375V4.125H20.625V8.25Z" fill="black"/>
</svg>
