<svg width="30" height="30" viewBox="0 0 30 30" fill="none" xmlns="http://www.w3.org/2000/svg">
<g clip-path="url(#clip0_443_2594)">
<path d="M14.9163 14.4168C17.1663 14.4168 18.9163 12.5835 18.9163 10.3335C18.9163 8.0835 17.083 6.3335 14.833 6.3335C12.583 6.3335 10.833 8.16683 10.833 10.3335C10.833 12.5835 12.6663 14.4168 14.9163 14.4168ZM14.833 8.00016C14.9163 8.00016 14.9163 8.00016 14.833 8.00016C16.1663 8.00016 17.2497 9.0835 17.2497 10.4168C17.2497 11.7502 16.1663 12.7502 14.833 12.7502C13.4997 12.7502 12.4997 11.6668 12.4997 10.4168C12.4997 9.0835 13.583 8.00016 14.833 8.00016Z" fill="black"/>
<path d="M27.25 13.9168C25.6667 12.5001 23.5833 11.7501 21.4167 11.8334H20.75C20.5833 12.5001 20.3333 13.0834 20 13.5834C20.5 13.5001 20.9167 13.5001 21.4167 13.5001C23 13.4168 24.5833 13.9168 25.8333 14.8334V20.8334H27.5V14.1668L27.25 13.9168Z" fill="black"/>
<path d="M19.4997 6.50016C19.9163 5.50016 21.083 5.00016 22.1663 5.41683C23.1663 5.8335 23.6663 7.00016 23.2497 8.0835C22.9163 8.8335 22.1663 9.3335 21.4163 9.3335C21.2497 9.3335 20.9997 9.3335 20.833 9.25016C20.9163 9.66683 20.9163 10.0835 20.9163 10.4168V10.9168C21.083 10.9168 21.2497 11.0002 21.4163 11.0002C23.4997 11.0002 25.1663 9.3335 25.1663 7.3335C25.1663 5.25016 23.4997 3.5835 21.4997 3.5835C20.1663 3.5835 18.9997 4.25016 18.333 5.41683C18.7497 5.66683 19.1663 6.00016 19.4997 6.50016Z" fill="black"/>
<path d="M10 13.6664C9.66667 13.1664 9.41667 12.5831 9.25 11.9164H8.58333C6.41667 11.8331 4.33333 12.5831 2.75 13.9164L2.5 14.1664V20.8331H4.16667V14.8331C5.5 13.9164 7 13.4164 8.58333 13.4998C9.08333 13.4998 9.58333 13.5831 10 13.6664Z" fill="black"/>
<path d="M8.58347 10.9166C8.75013 10.9166 8.9168 10.9166 9.08347 10.8333V10.3333C9.08347 9.91664 9.08347 9.49997 9.1668 9.16664C9.00013 9.24997 8.75013 9.24997 8.58347 9.24997C7.50013 9.24997 6.58347 8.3333 6.58347 7.24997C6.58347 6.16664 7.50013 5.24997 8.58347 5.24997C9.4168 5.24997 10.1668 5.74997 10.5001 6.49997C10.8335 6.0833 11.3335 5.66664 11.7501 5.3333C10.6668 3.5833 8.4168 2.99997 6.6668 4.0833C4.9168 5.16664 4.33347 7.41664 5.4168 9.16664C6.08347 10.25 7.25013 10.9166 8.58347 10.9166Z" fill="black"/>
<path d="M21.7497 18.9164L21.583 18.6664C19.9163 16.8331 17.583 15.7498 15.083 15.8331C12.583 15.7498 10.1663 16.8331 8.49967 18.6664L8.33301 18.9164V25.2498C8.33301 25.9998 8.91634 26.6664 9.74967 26.6664H20.4163C21.1663 26.6664 21.833 25.9998 21.833 25.2498V18.9164H21.7497ZM20.083 24.9998H9.99967V19.4998C11.333 18.1664 13.1663 17.4998 15.083 17.4998C16.9163 17.4164 18.7497 18.1664 20.083 19.4998V24.9998Z" fill="black"/>
</g>
<defs>
<clipPath id="clip0_443_2594">
<rect width="30" height="30" fill="white"/>
</clipPath>
</defs>
</svg>
