<svg width="48" height="48" viewBox="0 0 48 48" fill="none" xmlns="http://www.w3.org/2000/svg">
<g clip-path="url(#clip0_425_2745)">
<path fill-rule="evenodd" clip-rule="evenodd" d="M25.4142 31.414C25.0391 31.7889 24.5305 31.9996 24.0002 31.9996C23.4699 31.9996 22.9613 31.7889 22.5862 31.414L11.2722 20.1C11.0812 19.9155 10.9288 19.6948 10.824 19.4508C10.7192 19.2068 10.664 18.9444 10.6617 18.6788C10.6594 18.4132 10.71 18.1499 10.8106 17.9041C10.9111 17.6583 11.0596 17.435 11.2474 17.2472C11.4352 17.0594 11.6585 16.9109 11.9043 16.8104C12.1501 16.7098 12.4134 16.6592 12.679 16.6615C12.9446 16.6638 13.207 16.719 13.451 16.8238C13.695 16.9286 13.9157 17.081 14.1002 17.272L24.0002 27.172L33.9002 17.272C34.2774 16.9077 34.7826 16.7061 35.307 16.7107C35.8314 16.7152 36.333 16.9255 36.7038 17.2964C37.0746 17.6672 37.285 18.1688 37.2895 18.6932C37.2941 19.2176 37.0925 19.7228 36.7282 20.1L25.4142 31.414Z" fill="#4B5563"/>
</g>
<defs>
<clipPath id="clip0_425_2745">
<rect width="48" height="48" fill="white"/>
</clipPath>
</defs>
</svg>
