<svg width="30" height="30" viewBox="0 0 30 30" fill="none" xmlns="http://www.w3.org/2000/svg">
<g clip-path="url(#clip0_448_7382)">
<path d="M12.1562 0.625C19.06 0.625 24.6562 6.22125 24.6562 13.125C24.6562 20.0287 19.06 25.625 12.1562 25.625C5.2525 25.625 -0.34375 20.0287 -0.34375 13.125C-0.34375 6.22125 5.2525 0.625 12.1562 0.625ZM12.1562 3.125C9.50409 3.125 6.96055 4.17857 5.08518 6.05393C3.20982 7.9293 2.15625 10.4728 2.15625 13.125C2.15625 15.7772 3.20982 18.3207 5.08518 20.1961C6.96055 22.0714 9.50409 23.125 12.1562 23.125C14.8084 23.125 17.352 22.0714 19.2273 20.1961C21.1027 18.3207 22.1562 15.7772 22.1562 13.125C22.1562 10.4728 21.1027 7.9293 19.2273 6.05393C17.352 4.17857 14.8084 3.125 12.1562 3.125ZM12.1562 5.625C12.4624 5.62504 12.7579 5.73744 12.9867 5.94089C13.2155 6.14434 13.3617 6.42469 13.3975 6.72875L13.4062 6.875V12.6075L16.79 15.9913C17.0142 16.2162 17.1443 16.518 17.154 16.8355C17.1637 17.1529 17.0522 17.4621 16.8422 17.7003C16.6321 17.9386 16.3393 18.0879 16.0232 18.118C15.707 18.1481 15.3912 18.0568 15.14 17.8625L15.0225 17.7587L11.2725 14.0087C11.0782 13.8143 10.9535 13.5613 10.9175 13.2887L10.9062 13.125V6.875C10.9062 6.54348 11.0379 6.22554 11.2724 5.99112C11.5068 5.7567 11.8247 5.625 12.1562 5.625Z" fill="black"/>
<path d="M12.1562 0.625C19.06 0.625 24.6562 6.22125 24.6562 13.125C24.6562 20.0287 19.06 25.625 12.1562 25.625C5.2525 25.625 -0.34375 20.0287 -0.34375 13.125C-0.34375 6.22125 5.2525 0.625 12.1562 0.625ZM12.1562 3.125C9.50409 3.125 6.96055 4.17857 5.08518 6.05393C3.20982 7.9293 2.15625 10.4728 2.15625 13.125C2.15625 15.7772 3.20982 18.3207 5.08518 20.1961C6.96055 22.0714 9.50409 23.125 12.1562 23.125C14.8084 23.125 17.352 22.0714 19.2273 20.1961C21.1027 18.3207 22.1562 15.7772 22.1562 13.125C22.1562 10.4728 21.1027 7.9293 19.2273 6.05393C17.352 4.17857 14.8084 3.125 12.1562 3.125ZM12.1562 5.625C12.4624 5.62504 12.7579 5.73744 12.9867 5.94089C13.2155 6.14434 13.3617 6.42469 13.3975 6.72875L13.4062 6.875V12.6075L16.79 15.9913C17.0142 16.2162 17.1443 16.518 17.154 16.8355C17.1637 17.1529 17.0522 17.4621 16.8422 17.7003C16.6321 17.9386 16.3393 18.0879 16.0232 18.118C15.707 18.1481 15.3912 18.0568 15.14 17.8625L15.0225 17.7587L11.2725 14.0087C11.0782 13.8143 10.9535 13.5613 10.9175 13.2887L10.9062 13.125V6.875C10.9062 6.54348 11.0379 6.22554 11.2724 5.99112C11.5068 5.7567 11.8247 5.625 12.1562 5.625Z" fill="black"/>
</g>
<defs>
<clipPath id="clip0_448_7382">
<rect width="30" height="30" fill="white"/>
</clipPath>
</defs>
</svg>
