<svg width="24" height="24" viewBox="0 0 24 24" fill="none" xmlns="http://www.w3.org/2000/svg">
<g clip-path="url(#clip0_368_1571)">
<path d="M24 4.5V13.5C23.9062 13.3203 23.8047 13.1289 23.6953 12.9258C23.5859 12.7227 23.4648 12.5234 23.332 12.3281C23.1992 12.1328 23.0625 11.9375 22.9219 11.7422C22.7812 11.5469 22.6406 11.3828 22.5 11.25V7.5L12 12.75L1.5 7.5V18H12.75L13.5 19.5H0V4.5H24ZM22.3242 6H1.67578L12 11.168L22.3242 6ZM21.1875 18.5977C21.6172 18.8242 22.0039 19.1016 22.3477 19.4297C22.6914 19.7578 22.9883 20.125 23.2383 20.5312C23.4883 20.9375 23.6758 21.3672 23.8008 21.8203C23.9258 22.2734 23.9922 22.75 24 23.25V24H22.5V23.25C22.5 22.7344 22.4023 22.25 22.207 21.7969C22.0117 21.3438 21.7422 20.9492 21.3984 20.6133C21.0547 20.2773 20.6562 20.0078 20.2031 19.8047C19.75 19.6016 19.2656 19.5 18.75 19.5C18.2344 19.5 17.75 19.5977 17.2969 19.793C16.8438 19.9883 16.4453 20.2578 16.1016 20.6016C15.7578 20.9453 15.4883 21.3438 15.293 21.7969C15.0977 22.25 15 22.7344 15 23.25V24H13.5V23.25C13.5 22.7578 13.5625 22.2852 13.6875 21.832C13.8125 21.3789 14 20.9492 14.25 20.543C14.5 20.1367 14.7969 19.7695 15.1406 19.4414C15.4844 19.1133 15.875 18.832 16.3125 18.5977C15.8906 18.2383 15.5664 17.8125 15.3398 17.3203C15.1133 16.8281 15 16.3047 15 15.75C15 15.2344 15.0977 14.75 15.293 14.2969C15.4883 13.8438 15.7539 13.4492 16.0898 13.1133C16.4258 12.7773 16.8242 12.5078 17.2852 12.3047C17.7461 12.1016 18.2344 12 18.75 12C19.2656 12 19.75 12.0977 20.2031 12.293C20.6562 12.4883 21.0508 12.7578 21.3867 13.1016C21.7227 13.4453 21.9922 13.8438 22.1953 14.2969C22.3984 14.75 22.5 15.2344 22.5 15.75C22.5 16.2969 22.3867 16.8164 22.1602 17.3086C21.9336 17.8008 21.6094 18.2305 21.1875 18.5977ZM16.5 15.75C16.5 16.0625 16.5586 16.3555 16.6758 16.6289C16.793 16.9023 16.9531 17.1406 17.1562 17.3438C17.3594 17.5469 17.5977 17.707 17.8711 17.8242C18.1445 17.9414 18.4375 18 18.75 18C19.0625 18 19.3555 17.9414 19.6289 17.8242C19.9023 17.707 20.1406 17.5469 20.3438 17.3438C20.5469 17.1406 20.707 16.9023 20.8242 16.6289C20.9414 16.3555 21 16.0625 21 15.75C21 15.4375 20.9414 15.1445 20.8242 14.8711C20.707 14.5977 20.5469 14.3594 20.3438 14.1562C20.1406 13.9531 19.9023 13.793 19.6289 13.6758C19.3555 13.5586 19.0625 13.5 18.75 13.5C18.4375 13.5 18.1445 13.5586 17.8711 13.6758C17.5977 13.793 17.3594 13.9531 17.1562 14.1562C16.9531 14.3594 16.793 14.5977 16.6758 14.8711C16.5586 15.1445 16.5 15.4375 16.5 15.75Z" fill="black"/>
</g>
<defs>
<clipPath id="clip0_368_1571">
<rect width="24" height="24" fill="white"/>
</clipPath>
</defs>
</svg>
