<svg width="30" height="30" viewBox="0 0 30 30" fill="none" xmlns="http://www.w3.org/2000/svg">
<path d="M6.38719 2.25562L5.06719 3.57374L7.03125 5.53687L8.34938 4.21874L6.38719 2.25562ZM23.6137 2.25562L21.6497 4.21874L22.9688 5.53687L24.9319 3.57468L23.6137 2.25562ZM15 2.84062C14.6906 2.84312 14.3781 2.86312 14.0625 2.90062H14.0344C10.2319 3.33655 7.20562 6.40874 6.67969 10.1944C6.25969 13.2412 7.51594 16.0041 9.60938 17.7834C10.4656 18.5143 11.0448 19.5172 11.25 20.6241V26.2491H13.3875C13.7137 26.8087 14.3091 27.1866 15 27.1866C15.6909 27.1866 16.2862 26.8087 16.6125 26.2491H18.75V22.4991H18.8381V21.3853C18.8381 20.0109 19.5525 18.6253 20.7131 17.5481C22.2656 15.9937 23.4375 13.7859 23.4375 11.25C23.4375 6.61874 19.6256 2.79749 15 2.84062ZM15 4.71562C18.6234 4.66499 21.5625 7.63124 21.5625 11.25C21.5625 13.2131 20.6531 14.9419 19.3941 16.2L19.4241 16.23C18.1734 17.3842 17.3644 18.9384 17.1366 20.625H13.0359C12.8297 19.0181 12.1406 17.4628 10.8384 16.3472C9.18187 14.9409 8.19469 12.8222 8.52469 10.4297C8.93438 7.47655 11.3306 5.10187 14.2669 4.77655C14.5093 4.74293 14.7534 4.7229 14.9981 4.71655L15 4.71562ZM1.875 11.25V13.125H4.6875V11.25H1.875ZM25.3125 11.25V13.125H28.125V11.25H25.3125ZM7.03125 18.8381L5.06813 20.8003L6.38719 22.1194L8.34844 20.1562L7.03125 18.8381ZM22.9688 18.8381L21.6506 20.1562L23.6128 22.1194L24.9319 20.8003L22.9688 18.8381ZM13.125 22.5H16.875V24.375H13.125V22.5Z" fill="black"/>
</svg>
