<svg width="29" height="29" viewBox="0 0 29 29" fill="none" xmlns="http://www.w3.org/2000/svg">
<path d="M12.41 18.9663L20.6639 10.7124L19.0249 9.07335L12.41 15.6882L9.07335 12.3515L7.43428 13.9906L12.41 18.9663ZM5.85374 24.586C5.20982 24.586 4.65878 24.3569 4.20062 23.8988C3.74246 23.4406 3.51299 22.8892 3.51221 22.2445V5.85374C3.51221 5.20982 3.74168 4.65878 4.20062 4.20062C4.65956 3.74246 5.2106 3.51299 5.85374 3.51221H22.2445C22.8884 3.51221 23.4398 3.74168 23.8988 4.20062C24.3577 4.65956 24.5868 5.2106 24.586 5.85374V22.2445C24.586 22.8884 24.3569 23.4398 23.8988 23.8988C23.4406 24.3577 22.8892 24.5868 22.2445 24.586H5.85374ZM5.85374 22.2445H22.2445V5.85374H5.85374V22.2445Z" fill="#111827"/>
</svg>
