<svg width="30" height="30" viewBox="0 0 30 30" fill="none" xmlns="http://www.w3.org/2000/svg">
<path d="M23.75 12.025C23.75 15.25 22.1625 17.7313 19.7475 19.365C19.185 19.745 18.9038 19.935 18.765 20.1525C18.6275 20.3675 18.5788 20.6525 18.485 21.22L18.41 21.6613C18.245 22.6588 18.1612 23.1575 17.8112 23.4538C17.4612 23.75 16.9562 23.75 15.945 23.75H12.68C11.6688 23.75 11.1638 23.75 10.8138 23.4538C10.4638 23.1575 10.3812 22.6588 10.2137 21.6613L10.1412 21.22C10.0462 20.6538 10 20.37 9.8625 20.155C9.725 19.94 9.4425 19.7475 8.87875 19.3625C6.49 17.7288 5 15.2488 5 12.025C5 6.76626 9.1975 2.50001 14.375 2.50001C15.0048 2.49934 15.6331 2.563 16.25 2.69001" stroke="black" stroke-width="1.5" stroke-linecap="round" stroke-linejoin="round"/>
<path d="M16.875 23.75V25C16.875 26.1788 16.875 26.7675 16.5087 27.1338C16.1425 27.5 15.5538 27.5 14.375 27.5C13.1962 27.5 12.6075 27.5 12.2413 27.1338C11.875 26.7675 11.875 26.1788 11.875 25V23.75M20.625 2.5L20.9475 3.37125C21.37 4.51375 21.5812 5.085 21.9975 5.50125C22.415 5.91875 22.9862 6.13 24.1287 6.5525L25 6.875L24.1287 7.1975C22.9862 7.62 22.415 7.83125 21.9988 8.2475C21.5813 8.665 21.37 9.23625 20.9475 10.3788L20.625 11.25L20.3025 10.3788C19.88 9.23625 19.6688 8.665 19.2525 8.24875C18.835 7.83125 18.2637 7.62 17.1212 7.1975L16.25 6.875L17.1212 6.5525C18.2637 6.13 18.835 5.91875 19.2513 5.5025C19.6688 5.085 19.88 4.51375 20.3025 3.37125L20.625 2.5Z" stroke="black" stroke-width="1.5" stroke-linejoin="round"/>
</svg>
