<svg width="30" height="29" viewBox="0 0 30 29" fill="none" xmlns="http://www.w3.org/2000/svg">
<path d="M28.75 19.65H3.6882C2.93059 19.65 2.36744 19.8822 1.92563 20.2589C1.19603 20.8799 0.934674 21.7979 0.819555 22.6781C0.685767 23.6973 0.733993 24.6302 1.06068 25.6413C1.42782 26.7686 2.33633 27.75 3.68198 27.75H28.75M26.2703 27.75C23.8761 25.8438 22.8945 22.5417 26.2703 19.65M14.4659 6.825C14.4659 3.45 10.2516 2.1 10.2516 2.1M14.4659 7.39335C14.4659 7.39335 5.19565 3.2556 5.19565 10.0758C5.1972 16.8974 9.41306 19.65 11.0947 19.65C12.4357 19.65 13.226 18.2879 14.4659 18.2879C15.7057 18.2879 16.1491 19.65 17.8354 19.65C19.5156 19.65 23.7345 16.896 23.7345 10.0758C23.7345 3.2556 14.4659 7.39335 14.4659 7.39335ZM15.3075 6.15C15.3075 0.7635 18.3426 2.1 19.8609 0.75C21.3777 4.125 19.3475 4.80405 15.3075 6.15Z" stroke="black" stroke-width="1.5" stroke-linecap="round" stroke-linejoin="round"/>
</svg>
